<svg width="35" height="24" viewBox="0 0 35 24" fill="none" xmlns="http://www.w3.org/2000/svg">
<path d="M0 18.3887C0 18.7475 0.251453 19.0291 0.610284 19.0291H1.58467C2.23938 17.585 3.73001 16.4922 5.46079 16.4922C7.19165 16.4922 8.68194 17.585 9.33699 19.0291H22.0022V13.8472H0V18.3887Z" fill="white"/>
<path d="M5.46104 17.8613C3.87476 17.8613 2.58887 19.1472 2.58887 20.7335C2.58887 22.3198 3.87476 23.6057 5.46104 23.6057C7.04656 23.6039 8.33144 22.319 8.33322 20.7335C8.33322 19.1473 7.04732 17.8613 5.46104 17.8613Z" fill="white"/>
<path d="M34.6258 11.736L31.8904 10.5337H23.3613V19.0287H25.0168C25.672 17.5846 27.1622 16.4918 28.893 16.4918C30.6237 16.4918 32.1144 17.5846 32.7691 19.0287H34.3893C34.7481 19.0287 34.9995 18.7471 34.9995 18.3883V12.3539C35.0086 12.092 34.8619 11.8496 34.6258 11.736Z" fill="white"/>
<path d="M29.0781 5.63579C28.7367 4.98125 28.0552 4.57544 27.317 4.58716H23.3613V9.17449H30.9147L29.0781 5.63579Z" fill="white"/>
<path d="M20.0514 0H1.94061C0.848231 0 0 0.899286 0 1.99166V12.4877H22.0022V1.99166C22.0022 1.98861 22.0023 1.98555 22.0023 1.98249C22.011 0.896398 21.1376 0.0087499 20.0514 0Z" fill="white"/>
<path d="M28.8931 17.8613C27.3068 17.8614 26.0209 19.1473 26.021 20.7336C26.0211 22.3199 27.307 23.6058 28.8933 23.6057C30.4788 23.6039 31.7636 22.319 31.7653 20.7335V20.7334C31.7653 19.1472 30.4794 17.8613 28.8931 17.8613Z" fill="white"/>
</svg>
