<svg width="34" height="22" viewBox="0 0 34 22" fill="none" xmlns="http://www.w3.org/2000/svg">
<path d="M31.5282 7.02373C31.5056 6.99766 31.4864 6.97228 31.4596 6.9469L30.2818 5.81023C31.2586 5.58866 32.3102 4.77029 32.3102 3.93065C32.3102 2.95245 30.9527 2.60534 29.7941 2.60534C28.5826 2.60534 28.442 3.43538 28.4276 4.02189L25.3887 1.09208C24.7714 0.480871 23.6004 0 22.7251 0H16.8065H16.8051H10.8851C10.0105 0 8.8402 0.480871 8.22213 1.09208L5.18394 4.02189C5.16816 3.43538 5.02753 2.60534 3.81747 2.60534C2.65748 2.60534 1.30061 2.95245 1.30061 3.93065C1.30061 4.77029 2.3529 5.58866 3.32974 5.81023L2.15191 6.9469C2.12516 6.97228 2.10664 6.99766 2.08332 7.02373C0.823174 8.10071 0 10.0983 0 11.5478V15.855C0 16.9004 0.412273 17.8491 1.07836 18.5564V20.2267C1.07836 21.2036 1.89604 22 2.90169 22H5.10642C6.11206 22 6.92906 21.205 6.92906 20.2267V19.7994H16.8051H16.8065H26.6818V20.2267C26.6818 21.205 27.4981 22 28.5051 22H30.7092C31.7155 22 32.5318 21.2036 32.5318 20.2267V18.5564C33.1986 17.8491 33.6102 16.9004 33.6102 15.855V11.5478C33.6115 10.0983 32.7884 8.10071 31.5282 7.02373ZM9.33822 2.39406C9.76558 2.03804 10.5126 1.76777 10.8851 1.76777H16.8051H16.8065H22.7265C23.0989 1.76777 23.846 2.03804 24.2733 2.39406L28.2582 6.25612H16.8065H16.8051H5.35406L9.33822 2.39406ZM1.36715 10.8961C1.36715 9.83555 2.19719 8.97465 3.22204 8.97465C4.2462 8.97465 7.59309 10.9393 7.59309 11.9998C7.59309 13.0603 4.2462 12.8148 3.22204 12.8148C2.19719 12.8148 1.36715 11.9573 1.36715 10.8961ZM6.92975 17.9109H6.57647H6.22319L4.12753 17.9143C3.54582 17.7332 3.13561 17.5219 2.84544 17.2949C2.69864 17.1803 2.58614 17.061 2.49833 16.9423C2.40984 16.8222 2.34536 16.7042 2.30351 16.5863C2.04284 15.8495 2.58134 15.1725 2.58134 15.1725H6.15802L8.54248 17.9095L6.92975 17.9109ZM21.9486 17.9123H16.8065H16.8051H11.663C10.5908 17.9123 9.72031 17.0417 9.72031 15.9703H16.8051H16.8065H23.8912C23.8912 17.0431 23.0207 17.9123 21.9486 17.9123ZM22.3999 14.6449H16.8065H16.8051H11.2116C10.0455 14.6449 9.09881 13.2071 9.09881 11.4339H16.8051H16.8065H24.5127C24.5127 13.2078 23.5661 14.6449 22.3999 14.6449ZM31.3087 16.5876C31.2662 16.7056 31.2017 16.8236 31.1132 16.943C31.0261 17.0616 30.9136 17.181 30.7661 17.2956C30.4766 17.5226 30.0657 17.7353 29.484 17.915L27.3884 17.9116H27.0351H26.6818H25.0677L27.4535 15.1745H31.0295C31.0295 15.1738 31.5687 15.8495 31.3087 16.5876ZM30.3895 12.8148C29.366 12.8148 26.0191 13.059 26.0191 11.9998C26.0191 10.9407 29.366 8.97465 30.3895 8.97465C31.4144 8.97465 32.2444 9.83555 32.2444 10.8961C32.2444 11.9559 31.4144 12.8148 30.3895 12.8148Z" fill="white"/>
</svg>
