<svg width="34" height="24" viewBox="0 0 34 24" fill="none" xmlns="http://www.w3.org/2000/svg">
<path d="M5.45099 24C8.46209 24 10.9023 21.5593 10.9023 18.5488C10.9023 18.3598 10.8927 18.1735 10.8737 17.9894L13.0702 17.6038C13.0702 17.6038 13.1446 17.5047 13.686 18.0471C13.9175 18.2787 14.2325 18.308 14.5199 18.2705C15.0308 18.4432 16.1865 18.7755 17.5211 18.7755C18.5566 18.7755 19.6972 18.5739 20.7168 17.9388C22.2714 16.9692 23.1909 15.2045 23.4693 12.7081C24.1539 11.9531 24.8669 11.364 25.5657 10.9054L26.166 12.6933C24.2808 13.5512 22.9676 15.4473 22.9676 17.6532C22.9676 20.6638 25.4089 23.104 28.4188 23.104C31.4288 23.104 33.8701 20.6632 33.8701 17.6532C33.8701 14.6422 31.4288 12.2023 28.4188 12.2023C28.0081 12.2023 27.6089 12.2513 27.2238 12.3377L26.5506 10.3316C28.651 9.26128 30.3896 9.27737 30.3896 9.27737L31.0422 9.63449L33.2099 9.8069C31.9043 8.29215 26.7554 8.56249 26.7554 8.56249L27.8525 8.37788C27.8525 8.37788 27.8153 7.19533 27.1378 5.7418C26.4603 4.28838 25.7211 3.43833 25.7211 3.43833C25.6534 3.51459 25.6094 3.60453 25.5744 3.69762C25.5864 2.69705 25.5995 1.69647 25.6764 0.697473C25.6775 0.683588 25.6726 0.674015 25.672 0.661287C25.6965 0.558621 25.6639 0.448065 25.5385 0.386738C25.1343 0.189295 24.7367 0.0226726 24.282 0.000266946C24.1583 -0.00572894 24.045 0.0901003 24.0134 0.205074C23.8696 0.724717 23.8315 1.26919 23.8935 1.80292C23.8488 1.71246 23.8052 1.62231 23.7562 1.533C23.6805 1.39689 23.5492 1.37606 23.4359 1.41814C23.3084 1.39626 23.1636 1.44538 23.107 1.60001C23.0155 1.84973 22.8165 2.01772 22.8062 2.307C22.79 2.76184 23.3183 3.05733 23.6527 3.2392C23.716 3.27381 23.7792 3.27549 23.839 3.26424C24.0034 3.9301 24.058 4.61783 24.0176 5.32398C23.0001 5.98384 23.3924 6.58575 23.3924 6.58575L23.2076 6.89974C23.2076 6.89974 22.2463 5.53257 19.1056 7.56507C15.9649 9.59757 13.4891 8.30415 11.4197 7.56507C9.35053 6.8259 1.73807 6.6416 1.73807 6.6416C5.48287 7.20806 7.13331 10.2874 7.13331 10.2874L4.17724 8.46467C2.8714 8.58806 3.21611 9.96743 3.21611 9.96743L8.66058 13.293C9.71975 12.8987 10.9268 14.0812 10.9268 14.0812L12.06 16.077L10.5074 16.5192C9.70123 14.5154 7.74374 13.0991 5.4511 13.0991C2.44022 13.0991 0 15.5399 0 18.5498C0 21.5598 2.44075 24 5.45099 24ZM28.4182 13.8747C30.5017 13.8747 32.1956 15.5693 32.1956 17.6527C32.1956 19.7357 30.5016 21.4301 28.4182 21.4301C26.3348 21.4301 24.6408 19.7357 24.6408 17.6527C24.6408 16.188 25.4797 14.9178 26.7019 14.2914L27.8893 17.8297C27.9677 18.0629 28.1851 18.2105 28.4182 18.2105C28.4764 18.2105 28.5364 18.2006 28.5952 18.1817C28.8871 18.083 29.0446 17.7672 28.9472 17.4746L27.7597 13.9358C27.9737 13.8982 28.1933 13.8747 28.4182 13.8747ZM24.5493 2.7772C24.7191 2.64456 24.8832 2.51496 25.0394 2.37842C25.0177 3.20333 25.0134 4.02887 24.9959 4.8543C24.8478 4.90879 24.7138 4.96402 24.5906 5.01935C24.6053 4.27428 24.5143 3.54625 24.3057 2.84463C24.3847 2.85641 24.4709 2.83748 24.5493 2.7772ZM18.6132 11.494C21.2113 10.7148 22.0926 11.8878 22.3694 12.5147C22.1401 14.6903 21.3923 16.2001 20.1307 16.9893C18.4759 18.0237 16.3081 17.6195 15.2672 17.3303C15.3815 15.8025 15.9355 12.2973 18.6132 11.494ZM5.45099 14.7714C6.97448 14.7714 8.2861 15.6794 8.88359 16.9806L4.7925 18.1457L4.9404 19.0325L9.21483 18.2813C9.22114 18.3701 9.2284 18.4584 9.2284 18.5488C9.2284 20.6322 7.53388 22.3267 5.45036 22.3267C3.36716 22.3267 1.67264 20.6322 1.67264 18.5488C1.67327 16.4658 3.36832 14.7714 5.45099 14.7714Z" fill="white"/>
</svg>
