<svg width="36" height="23" viewBox="0 0 36 23" fill="none" xmlns="http://www.w3.org/2000/svg">
<path d="M34.045 7.31246C33.9897 7.24084 33.9364 7.17168 33.8856 7.10464C33.251 6.26846 32.738 5.3273 32.2854 4.49692C31.8416 3.68273 31.4225 2.91366 30.9648 2.38185C29.9438 1.19535 28.9831 0.618652 28.0278 0.618652H23.3105C23.306 0.618734 22.8554 0.624212 22.313 0.624212H21.5438C20.994 0.624212 20.5145 0.997502 20.3778 1.53201L20.3714 1.55695V11.9725L20.3726 11.994C20.3731 12.0003 20.3848 12.1495 20.2672 12.2778C20.1374 12.4196 19.8883 12.4945 19.5468 12.4945H1.17277C0.52609 12.4944 0 12.9893 0 13.5977V17.3901C0 17.9984 0.52609 18.4934 1.17277 18.4934H5.20817C5.41958 20.9091 7.45257 22.8108 9.9227 22.8108C12.3928 22.8108 14.426 20.9091 14.6373 18.4934H21.3911C21.6025 20.9091 23.6355 22.8108 26.1056 22.8108C28.5757 22.8108 30.6089 20.9091 30.8202 18.4934H33.8897C35.0533 18.4934 36 17.5467 36 16.3832V12.7623C36.0001 9.84808 34.8236 8.32213 34.045 7.31246ZM27.8707 18.0776C27.8707 19.0506 27.0789 19.8421 26.1056 19.8421C25.1326 19.8421 24.3411 19.0506 24.3411 18.0776C24.3411 17.1047 25.1326 16.3131 26.1056 16.3131C27.0789 16.3131 27.8707 17.1046 27.8707 18.0776ZM31.9293 8.89073C31.8924 8.95164 31.7871 8.97788 31.6272 8.96766L23.5174 8.96725V2.35217H27.0235C27.9669 2.35217 28.6354 2.76283 29.331 3.76955C29.7935 4.43912 31.0183 6.54732 31.0808 6.65491C31.1242 6.73887 31.169 6.82422 31.2141 6.91039C31.5674 7.58577 32.1015 8.60614 31.9293 8.89073ZM9.9227 16.3131C10.896 16.3131 11.6878 17.1047 11.6878 18.0776C11.6878 19.0506 10.896 19.8421 9.9227 19.8421C8.94974 19.8421 8.1582 19.0506 8.1582 18.0776C8.1582 17.1046 8.94974 16.3131 9.9227 16.3131Z" fill="white"/>
</svg>
