<svg width="36" height="26" viewBox="0 0 36 26" fill="none" xmlns="http://www.w3.org/2000/svg">
<path d="M34.045 10.3125C33.9897 10.2408 33.9364 10.1717 33.8856 10.1046C33.251 9.26846 32.738 8.3273 32.2854 7.49692C31.8416 6.68273 31.4225 5.91366 30.9648 5.38185C29.9438 4.19535 28.9831 3.61865 28.0278 3.61865H23.3105C23.306 3.61873 22.8554 3.62421 22.313 3.62421H21.5438C20.994 3.62421 20.5145 3.9975 20.3778 4.53201L20.3714 4.55695V14.9725L20.3726 14.994C20.3731 15.0003 20.3848 15.1495 20.2672 15.2778C20.1374 15.4196 19.8883 15.4945 19.5468 15.4945H1.17277C0.52609 15.4944 0 15.9893 0 16.5977V20.3901C0 20.9984 0.52609 21.4934 1.17277 21.4934H5.20817C5.41958 23.9091 7.45257 25.8108 9.9227 25.8108C12.3928 25.8108 14.426 23.9091 14.6373 21.4934H21.3911C21.6025 23.9091 23.6355 25.8108 26.1056 25.8108C28.5757 25.8108 30.6089 23.9091 30.8202 21.4934H33.8897C35.0533 21.4934 36 20.5467 36 19.3832V15.7623C36.0001 12.8481 34.8236 11.3221 34.045 10.3125ZM27.8707 21.0776C27.8707 22.0506 27.0789 22.8421 26.1056 22.8421C25.1326 22.8421 24.3411 22.0506 24.3411 21.0776C24.3411 20.1047 25.1326 19.3131 26.1056 19.3131C27.0789 19.3131 27.8707 20.1046 27.8707 21.0776ZM31.9293 11.8907C31.8924 11.9516 31.7871 11.9779 31.6272 11.9677L23.5174 11.9673V5.35217H27.0235C27.9669 5.35217 28.6354 5.76283 29.331 6.76955C29.7935 7.43912 31.0183 9.54732 31.0808 9.65491C31.1242 9.73887 31.169 9.82422 31.2141 9.91039C31.5674 10.5858 32.1015 11.6061 31.9293 11.8907ZM9.9227 19.3131C10.896 19.3131 11.6878 20.1047 11.6878 21.0776C11.6878 22.0506 10.896 22.8421 9.9227 22.8421C8.94974 22.8421 8.1582 22.0506 8.1582 21.0776C8.1582 20.1046 8.94974 19.3131 9.9227 19.3131Z" fill="white"/>
<path d="M2.47164 13.8166H8.03094C8.59447 13.8166 9.05287 13.3582 9.05287 12.7947V8.70699C9.05287 8.14346 8.59447 7.68506 8.03094 7.68506H2.47164C1.9081 7.68506 1.44971 8.14346 1.44971 8.70699V12.7947C1.44971 13.3582 1.90819 13.8166 2.47164 13.8166Z" fill="white"/>
<path d="M11.7099 13.8166H17.2692C17.8328 13.8166 18.2912 13.3582 18.2912 12.7947V8.70699C18.2912 8.14346 17.8328 7.68506 17.2692 7.68506H11.7099C11.1464 7.68506 10.688 8.14346 10.688 8.70699V12.7947C10.688 13.3582 11.1465 13.8166 11.7099 13.8166Z" fill="white"/>
<path d="M2.47164 6.13158H8.03094C8.59447 6.13158 9.05287 5.67319 9.05287 5.10965V1.02193C9.05287 0.458397 8.59447 0 8.03094 0H2.47164C1.9081 0 1.44971 0.458397 1.44971 1.02193V5.10965C1.44971 5.67319 1.90819 6.13158 2.47164 6.13158Z" fill="white"/>
<path d="M11.7099 6.13158H17.2692C17.8328 6.13158 18.2912 5.67319 18.2912 5.10965V1.02193C18.2912 0.458397 17.8328 0 17.2692 0H11.7099C11.1464 0 10.688 0.458397 10.688 1.02193V5.10965C10.688 5.67319 11.1465 6.13158 11.7099 6.13158Z" fill="white"/>
</svg>
