<svg width="23" height="26" viewBox="0 0 23 26" fill="none" xmlns="http://www.w3.org/2000/svg">
<path d="M19.804 2.76765H19.0342V1.92782C19.0342 0.864364 18.1951 0 17.1625 0C16.1292 0 15.2908 0.864364 15.2908 1.92782V2.76695H13.3699V1.92782C13.3699 0.864364 12.5308 0 11.4982 0C10.4656 0 9.62648 0.864364 9.62648 1.92782V2.76695H7.70567V1.92782C7.70567 0.864364 6.86654 0 5.83393 0C4.80132 0 3.96219 0.864364 3.96219 1.92782V2.76695H2.97936C1.33685 2.76695 0 4.1038 0 5.7463V22.5709C0 24.2134 1.33685 25.5503 2.97936 25.5503H19.804C21.4472 25.5503 22.7833 24.2134 22.7833 22.5709V5.7463C22.7833 4.1045 21.4465 2.76765 19.804 2.76765ZM16.3423 1.92782C16.3423 1.44481 16.7103 1.05154 17.1625 1.05154C17.6154 1.05154 17.9827 1.44481 17.9827 1.92782V5.36004C17.9827 5.84304 17.6154 6.23632 17.1625 6.23632C16.7103 6.23632 16.3423 5.84304 16.3423 5.36004V1.92782ZM10.678 1.92782C10.678 1.44481 11.0461 1.05154 11.4982 1.05154C11.9504 1.05154 12.3184 1.44481 12.3184 1.92782V5.36004C12.3184 5.84304 11.9504 6.23632 11.4982 6.23632C11.0461 6.23632 10.678 5.84304 10.678 5.36004V1.92782ZM5.01303 1.92782C5.01303 1.44481 5.38107 1.05154 5.83323 1.05154C6.28539 1.05154 6.65343 1.44481 6.65343 1.92782V5.36004C6.65343 5.84304 6.28539 6.23632 5.83323 6.23632C5.38107 6.23632 5.01303 5.84304 5.01303 5.36004V1.92782ZM21.0308 22.5716C21.0308 23.2481 20.4804 23.7984 19.804 23.7984H2.97936C2.30287 23.7984 1.75256 23.2481 1.75256 22.5716V7.14905H21.0308V22.5716Z" fill="#8A25B1"/>
<path d="M6.55129 10.2529H3.33008V13.1194H6.55129V10.2529Z" fill="#8A25B1"/>
<path d="M10.8518 10.2529H7.62988V13.1194H10.8518V10.2529Z" fill="#8A25B1"/>
<path d="M15.1538 10.2529H11.9326V13.1194H15.1538V10.2529Z" fill="#8A25B1"/>
<path d="M19.4534 10.2529H16.2314V13.1194H19.4534V10.2529Z" fill="#8A25B1"/>
<path d="M6.55129 14.0801H3.33008V16.9445H6.55129V14.0801Z" fill="#8A25B1"/>
<path d="M10.8518 14.0801H7.62988V16.9445H10.8518V14.0801Z" fill="#8A25B1"/>
<path d="M15.1538 14.0801H11.9326V16.9445H15.1538V14.0801Z" fill="#8A25B1"/>
<path d="M19.4534 14.0801H16.2314V16.9445H19.4534V14.0801Z" fill="#8A25B1"/>
<path d="M6.55129 17.9048H3.33008V20.7692H6.55129V17.9048Z" fill="#8A25B1"/>
<path d="M10.8518 17.9048H7.62988V20.7692H10.8518V17.9048Z" fill="#8A25B1"/>
<path d="M15.1538 17.9048H11.9326V20.7692H15.1538V17.9048Z" fill="#8A25B1"/>
<path d="M19.4534 17.9048H16.2314V20.7692H19.4534V17.9048Z" fill="#8A25B1"/>
</svg>
