<svg width="359" height="788" viewBox="0 0 359 788" fill="none" xmlns="http://www.w3.org/2000/svg">
<rect width="359" height="788" fill="#8A25B1"/>
<path d="M229.81 26.8871C213.261 26.0598 211.193 8.61766 212.227 -9.27674e-06L0 0L3.44446e-05 788L212.228 788C212.228 783.519 215.744 768.765 229.81 745.601C247.393 716.646 232.914 705.27 229.81 702.168C226.706 699.066 212.227 691.827 216.365 682.52C220.503 673.213 229.81 650.462 225.674 643.223C221.538 635.984 206.022 626.677 206.022 610.131C206.022 593.585 229.81 599.79 241.188 600.824C252.566 601.858 304.279 600.824 312.554 564.63C320.828 528.436 287.731 519.129 281.525 518.094C275.319 517.06 248.428 529.47 237.051 528.436C197.748 524.299 195.68 493.276 198.782 482.934C201.885 472.593 212.227 474.661 216.365 444.672C220.503 414.682 186.371 380.556 160.514 356.772C134.657 332.987 126.383 285.417 168.788 262.667C211.194 239.916 212.227 227.507 216.365 217.165C220.503 206.824 212.227 189.244 212.227 180.971C212.227 172.698 226.708 169.596 229.81 158.22C232.912 146.845 221.537 139.606 220.502 131.333C221.537 93.0709 257.737 95.1391 276.354 94.105C294.971 93.0708 319.794 104.446 343.582 85.832C367.371 67.2178 352.891 46.5354 334.274 36.1942C315.656 25.853 250.496 27.9212 229.81 26.8871Z" fill="#772C94"/>
</svg>
