<svg width="35" height="21" viewBox="0 0 35 21" fill="none" xmlns="http://www.w3.org/2000/svg">
<path d="M16.5758 8.26373L15.7697 14.1797C16.8446 14.1797 19.2815 14.1561 20.4298 14.0618C21.8652 13.9439 22.573 13.197 23.1236 12.0767C23.6742 10.9564 24.1067 7.61513 24.1264 7.2417C24.1421 6.94295 24.382 5.08626 24.5 4.19526L26.25 3.56632C26.8989 4.3918 28.3225 6.25112 28.8258 7.08446C29.4551 8.12615 29.0815 9.42334 28.8258 9.77712C28.5702 10.1309 26.8792 12.5287 26.486 13.197C24.7949 16.4596 21.2949 16.6169 20.0562 16.7545C5.6236 17.3048 2.14326 14.7497 1.96629 14.6318C2.51685 8.93198 6.50843 7.71341 7.23596 7.39894C11.8921 6.23539 15.4026 7.49066 16.5758 8.26373Z" fill="white"/>
<path d="M35 14.6907H26.8792C27.4888 13.8194 28.9006 11.7662 29.6714 10.524C33.2579 10.4139 34.7182 13.256 35 14.6907Z" fill="white"/>
<path d="M6.44944 6.53414C6.00899 5.7659 5.88577 4.45824 5.87921 3.90044H13.3315C16.8708 4.608 16.6938 6.71103 16.6545 7.0255C13.823 5.4728 11.5421 5.80692 10.0674 5.74796C8.5927 5.689 6.66573 6.41621 6.44944 6.53414Z" fill="white"/>
<path d="M0 12.0767C0.125843 11.3849 0.576779 10.5436 0.786517 10.2095H2.02528C1.67921 10.7598 1.36985 11.6836 1.25843 12.0767H0Z" fill="white"/>
<path d="M21.5702 0.637804H23.2612C23.2612 0.578841 23.3596 0.303678 23.5955 0.107133C23.8315 -0.0894111 24.264 0.0088612 24.5197 0.205406C24.7753 0.500223 25.5028 2.52463 25.4831 2.56394C25.4635 2.60325 24.3034 3.07496 24.1461 3.15357C24.1303 3.04351 23.8118 2.22981 23.6545 1.83673H21.6096C21.4719 1.81052 21.1376 1.77776 21.1376 1.24709C21.1376 0.723992 21.3988 0.671968 21.5631 0.639215L21.5702 0.637804Z" fill="white"/>
<path d="M29.1011 5.39418C28.991 5.1426 28.0983 4.01837 27.6657 3.4877H29.75C29.809 3.5139 29.9545 3.66459 30.0646 4.05768C30.1905 4.68662 29.9597 5.21074 29.8287 5.39418C29.6451 5.40073 29.2427 5.4099 29.1011 5.39418Z" fill="white"/>
<path d="M5.05337 17.01L3.22472 16.4596C3.14607 17.0296 3.3427 19.565 5.83989 20.705C8.31742 21.4519 9.41854 20.6067 10.3624 19.9581C11.1174 19.4393 11.5552 18.3399 11.6798 17.8551H9.77247C9.22191 18.4316 8.80899 19.6633 6.6264 19.0344C5.4309 18.5941 5.07959 17.5013 5.05337 17.01Z" fill="white"/>
<path d="M27.4494 20.1743C25.8607 19.1523 25.7125 16.8658 25.8371 15.8503H27.6461C27.6067 15.8503 27.2135 17.7568 28.4326 18.7002C29.6517 19.6437 31.1854 19.1916 31.9916 18.2482C32.6365 17.4935 32.4831 16.3352 32.3258 15.8503H34.2331C34.5674 17.6389 33.7416 18.9754 33.3287 19.4471C31.9326 21.275 29.4354 21.4519 27.4494 20.1743Z" fill="white"/>
</svg>
