<svg width="28" height="28" viewBox="0 0 28 28" fill="none" xmlns="http://www.w3.org/2000/svg">
<path fill-rule="evenodd" clip-rule="evenodd" d="M4.28133 22.7158C1.91682 22.7158 0 24.6326 0 26.9972C0 27.551 0.448983 28 1.00283 28H16.1278C16.6467 28 17.0672 27.5794 17.0672 27.0606C17.0672 24.661 15.122 22.7158 12.7225 22.7158H4.28133ZM3.94791 24.1735C2.60613 24.1735 1.51841 25.2613 1.51841 26.603H15.6095C15.6095 25.2613 14.5218 24.1735 13.18 24.1735H3.94791Z" fill="white"/>
<path fill-rule="evenodd" clip-rule="evenodd" d="M8.53372 17.7354C6.63846 17.7354 5.10205 19.2718 5.10205 21.167V22.7766H11.9654V21.167C11.9654 19.2718 10.429 17.7354 8.53372 17.7354ZM8.56408 19.193C7.45712 19.193 6.55974 20.0904 6.55974 21.1973V22.7765H10.5684V21.1973C10.5684 20.0904 9.67105 19.193 8.56408 19.193Z" fill="white"/>
<rect x="6.25586" y="10.8115" width="1.51844" height="8.13883" fill="white"/>
<rect x="9.23193" y="11.3579" width="1.51844" height="7.59219" fill="white"/>
<path fill-rule="evenodd" clip-rule="evenodd" d="M11.6568 6.43797L9.86502 3.64404L6.52098 7.47224C5.4159 8.73732 5.54551 10.6587 6.81048 11.7639C8.10182 12.8921 10.0701 12.7305 11.16 11.4066L14.4507 7.40977L11.6568 6.43797ZM12.6483 7.95832L10.2282 5.58986L7.66236 8.21166C7.00833 8.87994 7.01988 9.95189 7.68816 10.6059C8.35644 11.2599 9.42839 11.2484 10.0824 10.5801L12.6483 7.95832Z" fill="white"/>
<path fill-rule="evenodd" clip-rule="evenodd" d="M17.9783 4.16052C17.9783 6.45831 16.1155 8.32104 13.8177 8.32104C11.52 8.32104 9.65723 6.45831 9.65723 4.16052C9.65723 1.86273 11.52 0 13.8177 0C16.1155 0 17.9783 1.86273 17.9783 4.16052ZM16.642 4.19091C16.642 5.73395 15.3912 6.98483 13.8481 6.98483C12.3051 6.98483 11.0542 5.73395 11.0542 4.19091C11.0542 2.64786 12.3051 1.39698 13.8481 1.39698C15.3912 1.39698 16.642 2.64786 16.642 4.19091ZM13.8481 5.22342C14.4183 5.22342 14.8806 4.76114 14.8806 4.19088C14.8806 3.62063 14.4183 3.15834 13.8481 3.15834C13.2778 3.15834 12.8156 3.62063 12.8156 4.19088C12.8156 4.76114 13.2778 5.22342 13.8481 5.22342Z" fill="white"/>
<path d="M17.6746 4.7083L17.5531 2.43954L24.295 9.25763L23.0048 10.1148L17.6746 4.7083Z" fill="white"/>
<path d="M20.6848 12.1462L20.8062 14.415L14.2733 7.80574L15.3546 6.7397L20.6848 12.1462Z" fill="white"/>
<path fill-rule="evenodd" clip-rule="evenodd" d="M23.3232 9.04785C21.4447 9.04785 19.9219 10.5707 19.9219 12.4492V14.6411C19.9219 15.309 20.4633 15.8505 21.1312 15.8505H25.5151C26.183 15.8505 26.7245 15.309 26.7245 14.6411V12.4492C26.7245 10.5707 25.2017 9.04785 23.3232 9.04785ZM23.3232 10.4448C22.2497 10.4448 21.3796 11.315 21.3796 12.3884V14.4535H25.2668V12.3884C25.2668 11.315 24.3966 10.4448 23.3232 10.4448Z" fill="white"/>
<circle cx="25.5099" cy="26.421" r="0.9718" fill="white"/>
<circle cx="21.1368" cy="26.421" r="0.9718" fill="white"/>
<circle cx="23.0802" cy="22.5338" r="0.9718" fill="white"/>
<path d="M21.7531 20.8328L22.9375 20.0432C22.5933 19.4966 21.8564 18.3365 21.662 18.0692C21.4677 17.802 21.5608 17.6137 21.6317 17.553L21.7531 17.4011L22.7249 15.7916V15.6094H21.2065C20.9534 15.9637 20.3744 16.7877 20.0828 17.2493C19.7913 17.7109 19.9614 18.1502 20.0828 18.3122L21.7531 20.8328Z" fill="white"/>
<path d="M25.3064 20.8328L24.1221 20.0432C24.4662 19.4966 25.2032 18.3365 25.3975 18.0692C25.5919 17.802 25.4988 17.6137 25.4279 17.553L25.3064 17.4011L24.3346 15.7916V15.6094H25.8531C26.1061 15.9637 26.6852 16.7877 26.9767 17.2493C27.2683 17.7109 27.0982 18.1502 26.9767 18.3122L25.3064 20.8328Z" fill="white"/>
</svg>
