<svg width="35" height="21" viewBox="0 0 35 21" fill="none" xmlns="http://www.w3.org/2000/svg">
<path d="M5.05094 11.1227C6.76996 11.1227 8.29037 11.9675 9.20313 13.2541L10.5178 12.7035V11.8978L6.3996 10.2271L5.34227 7.84374H4.85635L2.42018 10.6727C2.32619 10.7818 2.19171 10.8381 2.05629 10.8381C1.9482 10.8381 1.83956 10.8023 1.7503 10.7289C1.54948 10.5636 1.52372 10.2703 1.69286 10.0739L3.61333 7.84366H3.30789C3.04523 7.84366 2.83252 7.63561 2.83252 7.37887C2.83252 7.12214 3.04523 6.91409 3.30789 6.91409H4.02205L3.39999 6.62577C3.10526 6.48913 2.97819 6.14574 3.11551 5.85634L3.47381 5.10109C3.57039 4.89758 3.77806 4.76663 4.00747 4.76455L10.6018 4.70616C10.6036 4.70616 10.6054 4.70616 10.6072 4.70616C10.7722 4.70616 10.9297 4.77318 11.0422 4.89126C11.0545 4.90405 12.4015 6.26783 14.8868 6.58441C15.0494 6.28932 15.3163 5.87383 15.71 5.46104C16.6659 4.45867 17.922 3.92888 19.3425 3.92888C19.63 3.92888 19.9286 3.95052 20.23 3.99327C20.2316 3.9935 20.2332 3.99373 20.2348 3.99404C20.3048 4.00452 21.9636 4.25686 24.2599 4.88664C24.285 4.88795 24.3211 4.88918 24.3655 4.88918C24.6289 4.88918 25.2685 4.84327 25.5177 4.41785C25.5356 4.38712 25.553 4.35168 25.5691 4.31147L24.4707 4.11644C24.164 4.0619 23.9605 3.77459 24.0162 3.47472C24.0719 3.17478 24.3659 2.97597 24.6725 3.03027L25.5575 3.18741C25.4221 2.6409 25.1145 1.89373 24.5032 0.875112C24.3758 0.662747 24.399 0.394844 24.5615 0.206511C24.6766 0.0729453 24.8442 0 25.0159 0C25.0863 0 25.1572 0.0121704 25.2256 0.0374355C25.2915 0.0616992 26.8551 0.649498 28.2738 2.09924C29.1819 3.02727 30.1459 4.44019 30.4485 6.41757C30.3679 6.2642 30.268 6.11508 30.1422 5.97612C30.1422 5.97612 28.5199 7.01145 29.4356 8.51033H30.5098C30.4841 8.81483 30.4439 9.12871 30.3865 9.45315C30.3642 9.57963 30.2996 9.69525 30.2031 9.78206L28.8761 10.9742C33.2395 10.402 34.8089 13.1708 34.8089 13.1708C35.1361 13.5968 34.9715 14.0559 34.4434 13.8122C34.7983 14.4873 35 15.2515 35 16.0614C35 18.7846 32.7342 21 29.9491 21C27.164 21 24.8981 18.7845 24.8981 16.0614C24.8981 15.8593 24.9121 15.6604 24.9363 15.4647H18.7645L21.2008 13.6891C21.2008 13.6891 24.092 13.9621 26.1546 11.7675C25.9388 11.7568 25.7033 11.75 25.453 11.75C23.7804 11.75 21.4521 12.0444 19.8585 13.4464C19.838 13.4645 19.8161 13.4812 19.7932 13.4963L14.3264 17.0989C14.2253 17.1655 14.1096 17.1981 13.9945 17.1981C13.8411 17.1981 13.6889 17.1402 13.5741 17.0278L11.3714 14.8742L10.0583 15.4241C10.086 15.6329 10.1018 15.8454 10.1018 16.0614C10.1018 18.7846 7.83595 21 5.05094 21C2.26577 21 0 18.7845 0 16.0614C0 13.3382 2.26577 11.1227 5.05094 11.1227ZM10.5178 9.92533L6.79572 8.19991L7.29882 9.33368L10.5178 10.6397V9.92533ZM29.9491 18.676C31.4235 18.676 32.623 17.5031 32.623 16.0614C32.623 14.6198 31.4235 13.4469 29.9491 13.4469C29.8869 13.4469 29.8254 13.4497 29.7642 13.4538L30.8703 15.6836L28.7317 16.6979L27.7091 14.6363C27.435 15.0466 27.2751 15.536 27.2751 16.0614C27.2751 17.5031 28.4747 18.676 29.9491 18.676ZM5.05094 18.676C6.40378 18.676 7.52445 17.6883 7.70013 16.4116L5.67718 17.2588L4.74125 15.1226L6.93185 14.2052C6.44837 13.7367 5.78369 13.4468 5.05094 13.4468C3.57654 13.4468 2.37693 14.6197 2.37693 16.0614C2.37693 17.503 3.57654 18.676 5.05094 18.676Z" fill="white"/>
</svg>
