<svg width="27" height="24" viewBox="0 0 27 24" fill="none" xmlns="http://www.w3.org/2000/svg">
<path d="M25.206 10.0047L23.4343 0.785131C23.3467 0.329641 22.9437 0 22.474 0H4.52574C4.05622 0 3.65303 0.329641 3.56544 0.785256L1.79392 10.0047C0.70797 10.775 0 12.0319 0 13.4531V18.0507C0 18.928 0.720192 19.6392 1.60856 19.6392H2.37586V21.6698C2.37586 22.9568 3.4324 24 4.73554 24C6.03869 24 7.09523 22.9566 7.09523 21.6698V19.6392H19.9048V21.6698C19.9048 22.9568 20.9613 24 22.2645 24C23.5676 24 24.6241 22.9566 24.6241 21.6698V19.6392H25.3914C26.2798 19.6392 27 18.928 27 18.0507V13.4531C26.9997 12.0321 26.2918 10.775 25.206 10.0047ZM4.66807 16.9429C3.431 16.9429 2.4404 15.9498 2.4404 14.7431C2.4404 13.5281 3.43775 12.5432 4.66807 12.5432C5.89292 12.5432 6.88644 13.5195 6.89536 14.7269C6.89536 14.7323 6.89574 14.7376 6.89574 14.7431C6.89561 15.958 5.89839 16.9429 4.66807 16.9429ZM19.637 5.30231C19.1063 5.30231 15.0582 5.30231 14.5281 5.30231C13.2924 5.30231 12.2822 6.29501 12.2761 7.51513L12.2682 9.20898H4.29785C4.175 9.20898 4.05355 9.21527 3.93324 9.2252L5.33492 1.9302H15.294C15.1814 2.17523 15.1182 2.44705 15.1182 2.73369C15.1182 3.80936 16.0012 4.68137 17.0905 4.68137C18.1797 4.68137 19.0627 3.80936 19.0627 2.73369C19.0627 2.44705 18.9995 2.17523 18.8869 1.9302H21.6644L23.0663 9.2252C22.8142 9.20433 22.7649 9.20898 21.8968 9.20898L21.8889 7.51513C21.883 6.29488 20.8727 5.30231 19.637 5.30231ZM22.3317 16.9429C21.1014 16.9429 20.104 15.958 20.104 14.7431C20.104 14.7377 20.1044 14.7323 20.1044 14.7269C20.1133 13.5195 21.1068 12.5432 22.3317 12.5432C23.562 12.5432 24.5593 13.5281 24.5593 14.7431C24.5593 15.9503 23.5682 16.9429 22.3317 16.9429Z" fill="white"/>
</svg>
