<svg width="30" height="28" viewBox="0 0 30 28" fill="none" xmlns="http://www.w3.org/2000/svg">
<path d="M28.4127 10.9492C27.536 10.9492 26.8253 11.6741 26.8253 12.5683V16.0388H23.5984V1.61906C23.5984 0.724909 22.8877 0 22.011 0H1.58734C0.710703 0 0 0.724909 0 1.61906V21.2756C0 22.1697 0.710703 22.8947 1.58734 22.8947H3.3988C3.4388 25.7165 5.70054 28 8.47637 28C11.2523 28 13.5139 25.7166 13.5539 22.8947H22.011C22.8877 22.8947 23.5984 22.1697 23.5984 21.2756V19.2768H28.4127C29.2893 19.2768 30 18.5519 30 17.6577V12.5682C30 11.6741 29.2893 10.9492 28.4127 10.9492ZM8.47637 24.762C7.42608 24.762 6.57157 23.8904 6.57157 22.8191C6.57157 21.7478 7.42608 20.8762 8.47637 20.8762C9.52666 20.8762 10.3812 21.7478 10.3812 22.8191C10.3812 23.8904 9.52666 24.762 8.47637 24.762Z" fill="white"/>
</svg>
