<svg width="16" height="20" viewBox="0 0 16 20" fill="none" xmlns="http://www.w3.org/2000/svg">
<path d="M14.4615 2.46154H11.0769V1.84615C11.0769 0.826538 10.2504 0 9.23077 0H6.76923C5.74962 0 4.92308 0.826538 4.92308 1.84615V2.46154H1.53846C0.688808 2.46154 0 3.15035 0 4V5.23077C0 5.57065 0.2755 5.84615 0.615385 5.84615H15.3846C15.7245 5.84615 16 5.57065 16 5.23077V4C16 3.15035 15.3112 2.46154 14.4615 2.46154ZM6.15385 1.84615C6.15385 1.50692 6.43 1.23077 6.76923 1.23077H9.23077C9.57 1.23077 9.84615 1.50692 9.84615 1.84615V2.46154H6.15385V1.84615Z" fill="#1A9FE6"/>
<path d="M1.16789 7.07715C1.05808 7.07715 0.970578 7.16892 0.975809 7.27861L1.4835 17.9341C1.53042 18.9202 2.34042 19.6925 3.32735 19.6925H12.6727C13.6597 19.6925 14.4697 18.9202 14.5166 17.9341L15.0243 7.27861C15.0295 7.16892 14.942 7.07715 14.8322 7.07715H1.16789ZM10.4616 8.61561C10.4616 8.27561 10.737 8.00023 11.077 8.00023C11.417 8.00023 11.6923 8.27561 11.6923 8.61561V16.6156C11.6923 16.9556 11.417 17.231 11.077 17.231C10.737 17.231 10.4616 16.9556 10.4616 16.6156V8.61561ZM7.38465 8.61561C7.38465 8.27561 7.66004 8.00023 8.00004 8.00023C8.34004 8.00023 8.61542 8.27561 8.61542 8.61561V16.6156C8.61542 16.9556 8.34004 17.231 8.00004 17.231C7.66004 17.231 7.38465 16.9556 7.38465 16.6156V8.61561ZM4.30773 8.61561C4.30773 8.27561 4.58312 8.00023 4.92312 8.00023C5.26312 8.00023 5.5385 8.27561 5.5385 8.61561V16.6156C5.5385 16.9556 5.26312 17.231 4.92312 17.231C4.58312 17.231 4.30773 16.9556 4.30773 16.6156V8.61561Z" fill="#1A9FE6"/>
</svg>
